<svg  viewBox="0 0 235 382" fill="none" xmlns="http://www.w3.org/2000/svg">
<path d="M21.992 54.1448C8.92246 54.4941 1.88503 60.9857 0 64.1878V315.263C2.0107 324.345 15.4991 326.325 21.992 326.179C21.992 343.645 45.4501 346.847 57.1791 346.265C60.1952 353.95 74.7727 361.111 81.6845 363.731C100.283 368.272 113.73 377.268 118.128 381.197C122.652 373.163 142.215 366.206 151.43 363.731C171.537 360.238 177.402 350.632 177.821 346.265C209.489 346.265 213.217 332.583 211.123 325.743C225.198 326.791 232.906 320.066 235 316.573V68.5544C234.497 58.0747 220.129 54.5815 213.008 54.1449C212.003 38.4254 188.712 33.6222 177.193 33.1856C173.674 27.2471 154.363 17.9027 145.147 13.9729C135.596 11.1783 122.736 3.49322 117.5 0C112.976 5.93847 97.6025 11.7896 90.4813 13.9729C70.877 18.5141 60.1114 29.5467 57.1791 34.4954C30.5374 34.1461 22.6203 47.4495 21.992 54.1448Z" fill="#FFF5D7"/>
</svg>
